<mxfile host="app.diagrams.net" agent="Mozilla/5.0 (Windows NT 10.0; Win64; x64) AppleWebKit/537.36 (KHTML, like Gecko) Chrome/133.0.0.0 Safari/537.36" version="26.1.0">
  <diagram name="1 oldal" id="QAot4Q26U97plfDjRMI-">
    <mxGraphModel dx="1195" dy="1784" grid="1" gridSize="10" guides="1" tooltips="1" connect="1" arrows="1" fold="1" page="1" pageScale="1" pageWidth="827" pageHeight="1169" math="0" shadow="0">
      <root>
        <mxCell id="0" />
        <mxCell id="1" parent="0" />
        <mxCell id="tfPyZfdhCF0ysh8LBvV3-1" value="&lt;b&gt;&lt;font style=&quot;font-size: 12px;&quot;&gt;Termék&lt;/font&gt;&lt;/b&gt;" style="rounded=0;whiteSpace=wrap;html=1;strokeWidth=2;" vertex="1" parent="1">
          <mxGeometry x="120" y="-470" width="120" height="60" as="geometry" />
        </mxCell>
        <mxCell id="tfPyZfdhCF0ysh8LBvV3-2" value="&lt;b&gt;Gyártó&lt;/b&gt;" style="rounded=0;whiteSpace=wrap;html=1;strokeWidth=2;" vertex="1" parent="1">
          <mxGeometry x="560" y="-470" width="120" height="60" as="geometry" />
        </mxCell>
        <mxCell id="tfPyZfdhCF0ysh8LBvV3-3" value="T-Gy" style="rhombus;whiteSpace=wrap;html=1;" vertex="1" parent="1">
          <mxGeometry x="360" y="-480" width="80" height="80" as="geometry" />
        </mxCell>
        <mxCell id="tfPyZfdhCF0ysh8LBvV3-12" style="rounded=0;orthogonalLoop=1;jettySize=auto;html=1;strokeColor=default;endArrow=none;startFill=0;" edge="1" parent="1" target="tfPyZfdhCF0ysh8LBvV3-18">
          <mxGeometry relative="1" as="geometry">
            <mxPoint x="180" y="-360" as="targetPoint" />
            <mxPoint x="180" y="-410" as="sourcePoint" />
          </mxGeometry>
        </mxCell>
        <mxCell id="tfPyZfdhCF0ysh8LBvV3-13" value="" style="endArrow=none;html=1;rounded=0;" edge="1" parent="1" source="tfPyZfdhCF0ysh8LBvV3-19">
          <mxGeometry width="50" height="50" relative="1" as="geometry">
            <mxPoint x="80" y="-360" as="sourcePoint" />
            <mxPoint x="180" y="-410" as="targetPoint" />
          </mxGeometry>
        </mxCell>
        <mxCell id="tfPyZfdhCF0ysh8LBvV3-14" value="" style="endArrow=none;html=1;rounded=0;" edge="1" parent="1" source="tfPyZfdhCF0ysh8LBvV3-17">
          <mxGeometry width="50" height="50" relative="1" as="geometry">
            <mxPoint x="240" y="-360" as="sourcePoint" />
            <mxPoint x="179.66000000000008" y="-410" as="targetPoint" />
          </mxGeometry>
        </mxCell>
        <mxCell id="tfPyZfdhCF0ysh8LBvV3-20" value="" style="group" vertex="1" connectable="0" parent="1">
          <mxGeometry x="30" y="-360" width="300" height="30" as="geometry" />
        </mxCell>
        <mxCell id="tfPyZfdhCF0ysh8LBvV3-17" value="ear" style="ellipse;whiteSpace=wrap;html=1;container=1;" vertex="1" parent="tfPyZfdhCF0ysh8LBvV3-20">
          <mxGeometry x="230" width="70" height="30" as="geometry" />
        </mxCell>
        <mxCell id="tfPyZfdhCF0ysh8LBvV3-18" value="név" style="ellipse;whiteSpace=wrap;html=1;container=1;" vertex="1" parent="tfPyZfdhCF0ysh8LBvV3-20">
          <mxGeometry x="115" width="70" height="30" as="geometry" />
        </mxCell>
        <mxCell id="tfPyZfdhCF0ysh8LBvV3-19" value="Tkód" style="ellipse;whiteSpace=wrap;html=1;container=1;" vertex="1" parent="tfPyZfdhCF0ysh8LBvV3-20">
          <mxGeometry width="70" height="30" as="geometry" />
        </mxCell>
        <mxCell id="tfPyZfdhCF0ysh8LBvV3-21" value="" style="group" vertex="1" connectable="0" parent="1">
          <mxGeometry x="470" y="-360" width="300" height="30" as="geometry" />
        </mxCell>
        <mxCell id="tfPyZfdhCF0ysh8LBvV3-22" value="telephely" style="ellipse;whiteSpace=wrap;html=1;container=1;" vertex="1" parent="tfPyZfdhCF0ysh8LBvV3-21">
          <mxGeometry x="230" width="70" height="30" as="geometry" />
        </mxCell>
        <mxCell id="tfPyZfdhCF0ysh8LBvV3-23" value="név" style="ellipse;whiteSpace=wrap;html=1;container=1;" vertex="1" parent="tfPyZfdhCF0ysh8LBvV3-21">
          <mxGeometry x="115" width="70" height="30" as="geometry" />
        </mxCell>
        <mxCell id="tfPyZfdhCF0ysh8LBvV3-24" value="adószám" style="ellipse;whiteSpace=wrap;html=1;container=1;" vertex="1" parent="tfPyZfdhCF0ysh8LBvV3-21">
          <mxGeometry width="70" height="30" as="geometry" />
        </mxCell>
        <mxCell id="tfPyZfdhCF0ysh8LBvV3-25" style="rounded=0;orthogonalLoop=1;jettySize=auto;html=1;strokeColor=default;endArrow=none;startFill=0;" edge="1" parent="1">
          <mxGeometry relative="1" as="geometry">
            <mxPoint x="620" y="-360" as="targetPoint" />
            <mxPoint x="620" y="-410" as="sourcePoint" />
          </mxGeometry>
        </mxCell>
        <mxCell id="tfPyZfdhCF0ysh8LBvV3-26" value="" style="endArrow=none;html=1;rounded=0;" edge="1" parent="1" source="tfPyZfdhCF0ysh8LBvV3-24">
          <mxGeometry width="50" height="50" relative="1" as="geometry">
            <mxPoint x="520" y="-360" as="sourcePoint" />
            <mxPoint x="620" y="-410" as="targetPoint" />
          </mxGeometry>
        </mxCell>
        <mxCell id="tfPyZfdhCF0ysh8LBvV3-27" value="" style="endArrow=none;html=1;rounded=0;" edge="1" parent="1" source="tfPyZfdhCF0ysh8LBvV3-22">
          <mxGeometry width="50" height="50" relative="1" as="geometry">
            <mxPoint x="720" y="-360" as="sourcePoint" />
            <mxPoint x="619.6600000000001" y="-410" as="targetPoint" />
          </mxGeometry>
        </mxCell>
        <mxCell id="tfPyZfdhCF0ysh8LBvV3-28" value="" style="endArrow=doubleBlock;html=1;rounded=0;endFill=1;exitX=0;exitY=0.5;exitDx=0;exitDy=0;entryX=1;entryY=0.5;entryDx=0;entryDy=0;" edge="1" parent="1" source="tfPyZfdhCF0ysh8LBvV3-3" target="tfPyZfdhCF0ysh8LBvV3-1">
          <mxGeometry width="50" height="50" relative="1" as="geometry">
            <mxPoint x="240" y="-440" as="sourcePoint" />
            <mxPoint x="300" y="-520" as="targetPoint" />
          </mxGeometry>
        </mxCell>
        <mxCell id="tfPyZfdhCF0ysh8LBvV3-29" value="" style="endArrow=doubleBlock;html=1;rounded=0;entryX=0;entryY=0.5;entryDx=0;entryDy=0;startArrow=none;startFill=0;endFill=1;" edge="1" parent="1">
          <mxGeometry width="50" height="50" relative="1" as="geometry">
            <mxPoint x="440" y="-440.34" as="sourcePoint" />
            <mxPoint x="560" y="-440.34" as="targetPoint" />
          </mxGeometry>
        </mxCell>
        <mxCell id="tfPyZfdhCF0ysh8LBvV3-30" value="" style="edgeStyle=orthogonalEdgeStyle;rounded=0;orthogonalLoop=1;jettySize=auto;html=1;endArrow=none;startFill=0;" edge="1" parent="1" source="tfPyZfdhCF0ysh8LBvV3-23" target="tfPyZfdhCF0ysh8LBvV3-2">
          <mxGeometry relative="1" as="geometry" />
        </mxCell>
      </root>
    </mxGraphModel>
  </diagram>
</mxfile>
